Coordinates
version=1
nRows=8
nColumns=36
inDegrees=yes

Units are S.I. units (second, meters, Newtons, ...)
If the header above contains a line with 'inDegrees', this indicates whether rotational values are in degrees (yes) or radians (no).

endheader
time	pelvis_tilt	pelvis_list	pelvis_rotation	pelvis_tx	pelvis_ty	pelvis_tz	hip_flexion_r	hip_adduction_r	hip_rotation_r	knee_angle_r	knee_angle_r_beta	ankle_angle_r	subtalar_angle_r	mtp_angle_r	hip_flexion_l	hip_adduction_l	hip_rotation_l	knee_angle_l	knee_angle_l_beta	ankle_angle_l	subtalar_angle_l	mtp_angle_l	lumbar_extension	lumbar_bending	lumbar_rotation	arm_flex_r	arm_add_r	arm_rot_r	elbow_flex_r	pro_sup_r	arm_flex_l	arm_add_l	arm_rot_l	elbow_flex_l	pro_sup_l
      2.96666670	      6.94658858	     20.93228458	     18.04142817	     -0.01428795	      0.80183778	     -0.20121155	     59.32270245	    -29.39314402	     15.18393157	     39.44061103	      0.68836852	      1.48975870	     13.08603900	     -7.49999987	     40.80421116	     26.50236944	     -7.50395448	     65.69423328	      1.14658067	     19.06790920	    -19.95020978	     -7.49999987	    -65.09511185	    -13.24593024	    -16.38376882	     83.54357732	      4.82563618	     61.14869626	    116.58161975	     98.27134340	     97.70863753	     -2.98218920	     63.43599715	    113.92662246	     93.25141913
      2.98333330	      6.81432945	     20.90796902	     18.29174934	     -0.01488889	      0.80143244	     -0.20144829	     59.39110532	    -29.49448584	     15.16769053	     39.40667656	      0.68777625	      1.60735642	     13.20684126	     -7.49999987	     41.05893021	     26.44550643	     -7.42103486	     65.88596498	      1.14992702	     18.87228406	    -20.14107535	     -7.49999987	    -65.30772054	    -13.14061469	    -16.60328358	     83.64774519	      5.23767235	     62.27518121	    116.05223847	     97.08462085	     97.59359992	     -3.31425236	     62.36008163	    113.42541439	     92.29002548
      3.00000000	      6.59863909	     20.92237710	     18.52326905	     -0.01880678	      0.80056483	     -0.20507187	     59.43336763	    -29.62445328	     15.16002934	     39.24295412	      0.68491876	      1.76257351	     13.32574018	     -7.49999987	     41.23753289	     26.44640441	     -7.44697613	     65.87195253	      1.14968246	     18.76598702	    -20.05821682	     -7.49999987	    -65.50274004	    -12.98539509	    -16.90213790	     83.77829855	      5.15639248	     62.49201417	    116.25822509	     97.10845184	     97.97834972	     -3.24863224	     61.87834875	    113.19468344	     92.27974361
      3.01666670	      6.55536361	     21.12565603	     18.65127529	     -0.01883255	      0.80020940	     -0.20503847	     59.35038300	    -29.94555617	     15.07937883	     39.15408304	      0.68336766	      1.93033769	     13.92228677	     -7.49999987	     41.09061257	     26.65406497	     -7.48559505	     65.64883009	      1.14578824	     18.69516374	    -20.01278160	     -7.49999987	    -65.88784127	    -12.94971136	    -16.79101162	     84.74905989	      4.82953899	     62.86879218	    117.12288637	     95.73954082	     98.21987010	     -2.55435342	     60.88392578	    112.18662335	     90.18474790
      3.03333330	      6.61761972	     21.20162546	     18.54521858	     -0.00762686	      0.80216825	     -0.20548352	     58.82916718	    -29.99168662	     15.03255888	     38.70901047	      0.67559968	      2.10252881	     14.08005073	     -7.49999987	     40.62146258	     26.75666842	     -7.32117120	     65.28638964	      1.13946246	     18.84211505	    -20.00888464	     -7.49999987	    -65.99217086	    -13.16443158	    -16.54929321	     83.90321216	      5.19840771	     63.70529911	    117.63377077	     95.84939492	     97.44372565	     -2.58868838	     61.11991792	    112.51743333	     90.26913651
      3.05000000	      6.64955355	     21.29334874	     18.48431914	     -0.01269701	      0.80152563	     -0.20878630	     58.41359977	    -30.11666330	     14.84462234	     38.34523111	      0.66925054	      2.14226260	     14.37693420	     -7.49999987	     40.22223771	     26.90179350	     -7.25762442	     64.90818726	      1.13286158	     18.94228248	    -19.89270667	     -7.49999987	    -65.97146905	    -13.10840471	    -16.65304321	     83.79506041	      4.91438787	     64.06390048	    118.18610464	     95.98777738	     96.87305862	     -2.45183683	     61.24627322	    113.00609780	     90.38790842
      3.06666670	      6.96079556	     21.20453769	     18.41050807	     -0.00789446	      0.79936771	     -0.20473137	     57.72546643	    -30.08263568	     14.43772743	     38.18774305	      0.66650185	      2.30431509	     14.86512889	     -7.49999987	     39.66544075	     26.86646185	     -6.98613581	     64.80671120	      1.13109049	     19.32190797	    -19.73121521	     -7.49999987	    -66.12090138	    -12.96264983	    -16.29227545	     84.04111138	      5.12517946	     64.51290084	    118.77859364	    100.10426522	     96.53766791	     -2.40403285	     60.30716352	    114.13043215	     94.80432277
      3.08333330	      6.92375792	     21.11113805	     18.33625993	     -0.00841623	      0.79938659	     -0.20462551	     57.54684415	    -29.89531886	     14.39342571	     38.13543338	      0.66558887	      2.36275887	     15.06731262	     -7.49999987	     39.53689025	     26.78987820	     -6.89225805	     64.69186398	      1.12908603	     19.72046767	    -19.51847398	     -7.49999987	    -65.91366531	    -13.04120367	    -16.17522603	     83.98918615	      5.28706286	     64.56929548	    118.93970254	    100.65634003	     96.38456788	     -2.31392474	     60.12713352	    114.69086674	     93.93430948
